<svg version="1.1" id="Layer_1" xmlns="http://www.w3.org/2000/svg" xmlns:xlink="http://www.w3.org/1999/xlink" x="0px" y="0px"
	 viewBox="0 0 668 298" style="enable-background:new 0 0 668 298;" xml:space="preserve">
<style type="text/css">
	.st0{opacity:0.6;fill:url(#XMLID_2_);}
	.st1{fill:#FFFFFF;}
	.st2{fill:#8DC63F;}
	.st3{fill:#D1D3D4;}
</style>
<linearGradient id="XMLID_2_" gradientUnits="userSpaceOnUse" x1="203.114" y1="189.8893" x2="75.4919" y2="274.7445">
	<stop  offset="0" style="stop-color:#D23829"/>
	<stop  offset="0.25" style="stop-color:#D54D2D;stop-opacity:0.75"/>
	<stop  offset="0.764" style="stop-color:#DD8336;stop-opacity:0.236"/>
	<stop  offset="1" style="stop-color:#E19E3A;stop-opacity:0"/>
</linearGradient>
<path id="XMLID_119_" class="st0" d="M217.6,238.4l-0.9,0.8L164.5,285c0,0-115.5,4.5-119-35s44.5-48,46-48.5s118,2,118,2
	L217.6,238.4z"/>
<g id="XMLID_104_">
	<path id="XMLID_115_" class="st1" d="M261.7,159.7L261,153l4.3,0.7l6.3-4l-9-0.3l-10,3.7l-30.2,27.7l-1.4,0.4l-9.2-11.8l-2.6-3.1
		l0.3-0.2L284,43.6l-108.1,78.7l-7.3,36l-15.7,7.7l-2,1.3l-19-0.7l-7.7-0.3l-59.1,47l132.1,5l6.7-0.3l14-10l-28.7-12.7l-0.7-47
		L218,208l-0.3,30.4l38.7-76.1l46.4,20.7L261.7,159.7z"/>
	<polygon id="XMLID_114_" class="st2" points="64.8,213.3 64.8,213.3 64.8,213.3 	"/>
	<path id="XMLID_111_" class="st3" d="M221.1,181.2l1.4-0.4l30.2-27.8l10-3.7L284,43.6l-74.4,122.5l-0.3,0.3L221.1,181.2z
		 M210.2,167.3l0.8,1.1"/>
	<path id="XMLID_109_" class="st3" d="M150.9,167.3l2-1.3L69.5,75.6l62.4,91.1l17.7,0.6L150.9,167.3z"/>
	<polygon id="XMLID_108_" class="st3" points="189.3,195.3 218,208 188.6,148.3 	"/>
	<path id="XMLID_106_" class="st3" d="M265.9,153.3l-0.6,0.4L261,153l0.1,0.9l0.6,5.8l41,23.4l-31-33.4l-5.1,3.2L265.9,153.3z"/>
	<polygon id="XMLID_105_" class="st3" points="204,218 197.3,218.4 217.6,238.4 218,208 	"/>
</g>
<polygon id="XMLID_103_" class="st1" points="69.5,75.6 163.5,160.8 152.9,166 "/>
<polygon id="XMLID_102_" class="st3" points="217.1,208.7 123,167.1 124.2,166.3 218,208 "/>
<polygon id="XMLID_101_" class="st3" points="65.1,213.4 66.3,212.4 185.2,193.2 185.4,194.2 "/>
<polygon id="XMLID_100_" class="st3" points="208.2,188.5 207.7,187.7 220.2,180.6 175.9,122.3 176.7,121.7 221.7,180.9 "/>
<polygon id="XMLID_99_" class="st3" points="257.2,162.7 256.3,162.4 260.7,152.8 261.7,153.1 "/>
<g>
	<path class="st1" d="M341.7,155.5c0,7.4,0.1,8.3,4.6,8.8l1.9,0.2c0.4,0.4,0.3,1.5-0.1,1.8c-4-0.1-6.3-0.2-9.1-0.2
		c-2.9,0-5.5,0.1-8.5,0.2c-0.4-0.2-0.6-1.3-0.1-1.8l1.5-0.2c4.1-0.6,4.2-1.4,4.2-8.8v-25.8c0-6-0.1-7.1-3.3-7.5l-2.5-0.3
		c-0.5-0.4-0.4-1.5,0.1-1.8c3.7-0.5,8.1-0.6,13.9-0.6s10.2,0.8,13.4,2.8c3.2,2,5.6,5.7,5.6,10.5c0,6.4-4,9.7-7,11.1
		c-3.1,1.5-6.8,2.1-9.7,2.1c-0.5-0.2-0.5-1.3-0.1-1.4c7.6-1.4,10.3-5.7,10.3-11.8c0-6.8-4-11.2-11.3-11.2c-3.7,0-3.8,0.3-3.8,2.5
		V155.5z"/>
	<path class="st1" d="M370.8,148.1c-1.8,0-1.9,0.1-1.9,1.9c0,7.1,4.1,13.1,11.6,13.1c2.3,0,4.3-0.7,6.4-3.4c0.7-0.2,1.2,0.2,1.3,0.8
		c-2.3,4.8-7.4,6.5-11,6.5c-4.6,0-8.1-2-10.2-4.6c-2.1-2.7-2.9-6-2.9-9.1c0-8.6,5.7-15.8,14.1-15.8c6,0,9.9,4.1,9.9,8.3
		c0,1-0.1,1.5-0.3,1.8c-0.2,0.4-1.2,0.5-4.1,0.5H370.8z M375.1,146c5.2,0,6.7-0.3,7.3-0.7c0.2-0.1,0.4-0.4,0.4-1.3
		c0-2-1.3-4.4-5.4-4.4c-4.1,0-7.7,3.8-7.8,6.1c0,0.1,0,0.4,0.5,0.4H375.1z"/>
	<path class="st1" d="M396.2,145.9c0-2.7,0-3.1-1.9-4.3l-0.6-0.4c-0.3-0.3-0.3-1,0.1-1.3c1.6-0.6,5.3-2.4,7.1-3.4
		c0.4,0.1,0.6,0.2,0.6,0.5v4.1c0,0.3,0.1,0.6,0.2,0.6c2.5-2,5.1-4.2,7.7-4.2c1.8,0,3.2,1.1,3.2,2.8c0,2.3-1.9,3.2-3,3.2
		c-0.7,0-1.1-0.2-1.5-0.5c-1-0.7-2.1-1.1-3.1-1.1c-1.1,0-2,0.6-2.5,1.4c-0.7,1-0.9,3-0.9,5.4v9.5c0,5,0.1,5.9,2.8,6.1l2.5,0.2
		c0.5,0.4,0.4,1.5-0.1,1.8c-3.3-0.1-5.3-0.2-7.8-0.2c-2.5,0-4.6,0.1-6.4,0.2c-0.5-0.2-0.6-1.4-0.1-1.8l1.3-0.2
		c2.6-0.4,2.7-1.1,2.7-6.1V145.9z"/>
	<path class="st1" d="M426.2,141.4c-1.2,0-1.2,0.1-1.2,2v14.8c0,5,0.1,5.9,2.7,6.1l2.5,0.2c0.5,0.4,0.4,1.5-0.1,1.8
		c-3.1-0.1-5.2-0.2-7.6-0.2c-2.5,0-4.6,0.1-6.7,0.2c-0.5-0.2-0.6-1.4-0.1-1.8l1.6-0.2c2.6-0.3,2.7-1.1,2.7-6.1v-14.8
		c0-1.9,0-2-1.4-2H416c-0.4-0.3-0.5-0.9-0.2-1.3l3-1.5c0.6-0.3,1.1-0.7,1.1-1.4c0-4.1,0.5-8.4,2.2-12.3c1.8-4,5.7-8.9,12.6-8.9
		c3.7,0,6.9,1.7,6.9,4.2c0,1.4-1.3,2.5-2.7,2.5c-0.8,0-1.2-0.3-1.7-0.8c-1.3-1.5-3.3-3.1-5.6-3.1c-2.2,0-3.9,1.3-5,3.9
		c-1.3,3.2-1.5,8.3-1.5,11.8v2c0,1.9,0,2,1.2,2h8c0.8,0.7,0.3,2.7-0.5,2.9H426.2z"/>
	<path class="st1" d="M442.6,148.1c-1.8,0-1.9,0.1-1.9,1.9c0,7.1,4.1,13.1,11.6,13.1c2.3,0,4.3-0.7,6.4-3.4c0.7-0.2,1.2,0.2,1.3,0.8
		c-2.3,4.8-7.4,6.5-11,6.5c-4.6,0-8.1-2-10.2-4.6c-2.1-2.7-2.9-6-2.9-9.1c0-8.6,5.7-15.8,14.1-15.8c6,0,9.9,4.1,9.9,8.3
		c0,1-0.1,1.5-0.3,1.8c-0.2,0.4-1.2,0.5-4.1,0.5H442.6z M446.9,146c5.2,0,6.7-0.3,7.3-0.7c0.2-0.1,0.4-0.4,0.4-1.3
		c0-2-1.3-4.4-5.4-4.4c-4.1,0-7.7,3.8-7.8,6.1c0,0.1,0,0.4,0.5,0.4H446.9z"/>
	<path class="st1" d="M486.9,138.6c0.6,0.5,1,1.6,1,2.8c0,1.3-0.7,2.6-1.5,2.6c-0.4,0-0.7-0.1-1-0.5c-1.5-1.9-4.1-3.7-7-3.7
		c-4.9,0-9.7,3.9-9.7,11.3c0,5.5,3.8,12,11.3,12c4.1,0,6.2-1.8,7.8-4.2c0.6-0.1,1.2,0.3,1.3,1c-2.4,5.2-7.6,7.1-11.7,7.1
		c-3.7,0-7.1-1.2-9.6-3.6c-2.5-2.4-4.1-5.8-4.1-10.4c0-7.6,5.3-15.6,16.9-15.6C482.3,137.4,485,137.8,486.9,138.6z"/>
	<path class="st1" d="M501.8,141.4c-1.2,0-1.3,0.2-1.3,1.7v13.1c0,4.1,0.5,7.8,5.1,7.8c0.7,0,1.3-0.1,1.9-0.4c0.6-0.2,1.5-1,1.8-1
		c0.6,0,0.8,0.8,0.7,1.2c-1.3,1.5-3.8,3.2-7.4,3.2c-6,0-7.3-3.4-7.3-7.6v-16c0-1.9-0.1-2-1.5-2h-2c-0.4-0.3-0.5-1.1-0.2-1.5
		c2-0.6,3.8-1.5,4.5-2.2c0.9-0.8,2.2-2.7,2.9-4.1c0.4-0.1,1.2-0.1,1.5,0.4v3.2c0,1.3,0.1,1.3,1.3,1.3h7.8c0.8,0.6,0.7,2.5,0.1,2.9
		H501.8z"/>
	<path class="st3" d="M515.5,163.1c0-2.4,1.7-4.1,3.9-4.1c2.4,0,3.9,1.9,3.9,4.1s-1.5,3.9-3.9,3.9
		C517.4,167,515.5,165.5,515.5,163.1z"/>
	<path class="st3" d="M559.8,151.9c0,8.8-6,15.1-14.8,15.1c-8.1,0-14.4-5.7-14.4-14.4c0-8.8,6.7-15.1,14.9-15.1
		C553.4,137.4,559.8,143.3,559.8,151.9z M544.7,139.5c-4.6,0-8.1,4.4-8.1,12.1c0,6.4,2.9,13.2,9,13.2s8.1-6.4,8.1-11.8
		C553.7,147.1,551.3,139.5,544.7,139.5z"/>
	<path class="st3" d="M569.1,145.9c0-2.7,0-3.1-1.9-4.3l-0.6-0.4c-0.3-0.3-0.3-1,0.1-1.3c1.6-0.6,5.3-2.4,7.1-3.4
		c0.4,0.1,0.6,0.2,0.6,0.5v4.1c0,0.3,0.1,0.6,0.2,0.6c2.5-2,5.1-4.2,7.7-4.2c1.8,0,3.2,1.1,3.2,2.8c0,2.3-1.9,3.2-3,3.2
		c-0.7,0-1.1-0.2-1.5-0.5c-1-0.7-2.1-1.1-3.1-1.1c-1.1,0-2,0.6-2.5,1.4c-0.7,1-0.9,3-0.9,5.4v9.5c0,5,0.1,5.9,2.8,6.1l2.5,0.2
		c0.5,0.4,0.4,1.5-0.1,1.8c-3.3-0.1-5.3-0.2-7.8-0.2c-2.5,0-4.6,0.1-6.4,0.2c-0.5-0.2-0.6-1.4-0.1-1.8l1.3-0.2
		c2.6-0.4,2.7-1.1,2.7-6.1V145.9z"/>
	<path class="st3" d="M616.7,140c0.8,0.3,0.6,2.7-0.4,2.9h-5c0.1,1.2,0.1,2.4,0.1,3.6c0,4.8-2.9,11.1-11.8,11.1
		c-1.3,0-2.2-0.1-3.1-0.2c-0.8,0.5-3.1,1.8-3.1,3.9c0,1.6,1.6,2.9,4.9,2.9c2.4,0,5.3-0.2,8.3-0.2c3.9,0,9.8,0.7,9.8,7.7
		c0,7.6-8.3,13.2-17.4,13.2c-8.6,0-11.6-4.6-11.6-8.1c0-1.1,0.3-2,0.8-2.6c1.2-1.3,3.1-3.1,4.8-4.7c0.6-0.6,1.2-1.3,0.6-1.7
		c-2.7-0.7-5.1-3.1-5.1-5.5c0-0.4,0.3-0.6,1-1.2c1.2-0.8,2.5-2,3.7-3.2c0.4-0.4,0.7-1,0.7-1.3c-2.4-1.3-5.3-4-5.3-8.5
		c0-6,5.2-10.6,11.4-10.6c2.7,0,5.1,0.7,6.7,1.4c2.2,1,2.7,1.1,4.3,1.1H616.7z M602,168.2c-2.2,0-5,0.1-6,0.8
		c-1.7,1.1-3.4,3.2-3.4,5.9c0,3.8,3,6.9,9.4,6.9c6.2,0,10.4-3.5,10.4-7.5c0-4.3-2.9-6.1-8-6.1H602z M606.4,148.2
		c0-4.8-2-8.8-6.2-8.8c-3.4,0-5.9,3.1-5.9,7.8c0,5,3,8.2,6.4,8.2C604.4,155.5,606.4,152.5,606.4,148.2z"/>
</g>
</svg>
